<mxfile host="app.diagrams.net" modified="2023-03-02T13:12:53.705Z" agent="5.0 (Windows NT 10.0; Win64; x64) AppleWebKit/537.36 (KHTML, like Gecko) Chrome/110.0.0.0 Safari/537.36" etag="xIzkFq_vGsC-3DNDwvnt" version="20.8.23" type="github">
  <diagram name="Page-1" id="WWuBMSywa8YxEu_j2Mki">
    <mxGraphModel dx="2284" dy="1896" grid="1" gridSize="10" guides="1" tooltips="1" connect="1" arrows="1" fold="1" page="1" pageScale="1" pageWidth="850" pageHeight="1100" math="0" shadow="0">
      <root>
        <mxCell id="0" />
        <mxCell id="1" parent="0" />
        <mxCell id="avWEDO7k54FsJl_2Dnr1-15" value="" style="rounded=0;whiteSpace=wrap;html=1;fontFamily=Courier New;fontColor=#333333;dashed=1;fillColor=#f5f5f5;strokeColor=#666666;" vertex="1" parent="1">
          <mxGeometry x="-220" y="-180" width="410" height="110" as="geometry" />
        </mxCell>
        <mxCell id="avWEDO7k54FsJl_2Dnr1-4" value="Azure Cloud" style="sketch=0;outlineConnect=0;gradientColor=none;html=1;whiteSpace=wrap;fontSize=12;fontStyle=0;shape=mxgraph.aws4.group;grIcon=mxgraph.aws4.group_aws_cloud;strokeColor=#AAB7B8;fillColor=none;verticalAlign=top;align=left;spacingLeft=30;fontColor=#AAB7B8;dashed=0;" vertex="1" parent="1">
          <mxGeometry x="20" y="120" width="750" height="300" as="geometry" />
        </mxCell>
        <mxCell id="avWEDO7k54FsJl_2Dnr1-1" value="" style="rounded=0;whiteSpace=wrap;html=1;" vertex="1" parent="1">
          <mxGeometry x="270" y="490" width="280" height="170" as="geometry" />
        </mxCell>
        <mxCell id="avWEDO7k54FsJl_2Dnr1-22" style="edgeStyle=orthogonalEdgeStyle;rounded=0;orthogonalLoop=1;jettySize=auto;html=1;fontFamily=Courier New;fontColor=#000000;endArrow=none;endFill=0;" edge="1" parent="1" source="avWEDO7k54FsJl_2Dnr1-3" target="avWEDO7k54FsJl_2Dnr1-21">
          <mxGeometry relative="1" as="geometry" />
        </mxCell>
        <mxCell id="avWEDO7k54FsJl_2Dnr1-3" value="" style="outlineConnect=0;dashed=0;verticalLabelPosition=bottom;verticalAlign=top;align=center;html=1;shape=mxgraph.aws3.internet_gateway;fillColor=#F58534;gradientColor=none;" vertex="1" parent="1">
          <mxGeometry x="330" y="70" width="79.5" height="82" as="geometry" />
        </mxCell>
        <mxCell id="avWEDO7k54FsJl_2Dnr1-10" style="edgeStyle=orthogonalEdgeStyle;rounded=0;orthogonalLoop=1;jettySize=auto;html=1;entryX=0.5;entryY=0;entryDx=0;entryDy=0;entryPerimeter=0;" edge="1" parent="1" source="avWEDO7k54FsJl_2Dnr1-8" target="avWEDO7k54FsJl_2Dnr1-3">
          <mxGeometry relative="1" as="geometry" />
        </mxCell>
        <mxCell id="avWEDO7k54FsJl_2Dnr1-8" value="" style="sketch=0;pointerEvents=1;shadow=0;dashed=0;html=1;strokeColor=none;fillColor=#434445;aspect=fixed;labelPosition=center;verticalLabelPosition=bottom;verticalAlign=top;align=center;outlineConnect=0;shape=mxgraph.vvd.web_browser;" vertex="1" parent="1">
          <mxGeometry x="292.2899999999999" y="-310" width="154.93" height="110" as="geometry" />
        </mxCell>
        <mxCell id="avWEDO7k54FsJl_2Dnr1-9" value="Client App" style="text;html=1;strokeColor=none;fillColor=none;align=center;verticalAlign=middle;whiteSpace=wrap;rounded=0;" vertex="1" parent="1">
          <mxGeometry x="760" y="-190" width="60" height="30" as="geometry" />
        </mxCell>
        <mxCell id="avWEDO7k54FsJl_2Dnr1-13" value="&lt;div&gt;&lt;font face=&quot;Courier New&quot; color=&quot;#000000&quot;&gt;&lt;u&gt;Request Headers:&lt;/u&gt;&lt;/font&gt;&lt;/div&gt;&lt;div&gt;&lt;font face=&quot;Courier New&quot; color=&quot;#000000&quot;&gt;URI: https://logixhealth-azure-gateway/some-resource&lt;/font&gt;&lt;/div&gt;&lt;div&gt;&lt;font face=&quot;Courier New&quot; color=&quot;#000000&quot;&gt;Host: developer.mozilla.org&lt;/font&gt;&lt;/div&gt;&lt;div&gt;&lt;font face=&quot;Courier New&quot; color=&quot;#000000&quot;&gt;User-Agent: Mozilla/5.0&lt;/font&gt;&lt;/div&gt;&lt;div&gt;&lt;font face=&quot;Courier New&quot; color=&quot;#000000&quot;&gt;Accept: application/json&lt;/font&gt;&lt;/div&gt;&lt;div&gt;&lt;font face=&quot;Courier New&quot; color=&quot;#000000&quot;&gt;x-api-key: klsfhahiiosu;uf.0802kdfd==&lt;/font&gt;&lt;/div&gt;&lt;div style=&quot;&quot;&gt;&lt;font face=&quot;Courier New&quot;&gt;LH-Meta: eyJhbGciOiJIUzI1NiIsInR5cCI6IkpXVCJ9...&lt;/font&gt;&lt;/div&gt;" style="text;html=1;strokeColor=none;fillColor=none;align=left;verticalAlign=middle;whiteSpace=wrap;rounded=0;fontColor=#EA6B66;" vertex="1" parent="1">
          <mxGeometry x="-210" y="-170" width="400" height="90" as="geometry" />
        </mxCell>
        <mxCell id="avWEDO7k54FsJl_2Dnr1-14" value="" style="endArrow=none;html=1;rounded=0;endFill=0;dashed=1;entryX=1;entryY=0.5;entryDx=0;entryDy=0;" edge="1" parent="1" target="avWEDO7k54FsJl_2Dnr1-13">
          <mxGeometry width="50" height="50" relative="1" as="geometry">
            <mxPoint x="370" y="-125" as="sourcePoint" />
            <mxPoint x="430" y="120" as="targetPoint" />
          </mxGeometry>
        </mxCell>
        <mxCell id="avWEDO7k54FsJl_2Dnr1-16" value="" style="rounded=0;whiteSpace=wrap;html=1;fontFamily=Courier New;dashed=1;fillColor=#f5f5f5;strokeColor=#F19C99;fontColor=#333333;" vertex="1" parent="1">
          <mxGeometry x="-220" y="-30" width="410" height="110" as="geometry" />
        </mxCell>
        <mxCell id="avWEDO7k54FsJl_2Dnr1-17" value="&lt;font face=&quot;Courier New&quot; style=&quot;&quot; color=&quot;#000000&quot;&gt;&lt;u&gt;LH-Meta&lt;span style=&quot;background-color: initial;&quot;&gt;:&lt;/span&gt;&lt;br&gt;&lt;/u&gt;&lt;/font&gt;&lt;div&gt;&lt;font face=&quot;Courier New&quot; color=&quot;#000000&quot;&gt;{&lt;/font&gt;&lt;/div&gt;&lt;div&gt;&lt;font face=&quot;Courier New&quot; color=&quot;#000000&quot;&gt;&amp;nbsp; &amp;nbsp;&quot;ClientId&quot;&amp;nbsp; &amp;nbsp; &amp;nbsp; : &quot;031&quot;,&lt;/font&gt;&lt;/div&gt;&lt;div&gt;&lt;font face=&quot;Courier New&quot; color=&quot;#000000&quot;&gt;&amp;nbsp; &amp;nbsp;&quot;Routing&quot;&amp;nbsp; &amp;nbsp; &amp;nbsp; &amp;nbsp;: &quot;Epic&quot;&lt;/font&gt;&lt;/div&gt;&lt;div&gt;&lt;font face=&quot;Courier New&quot; color=&quot;#000000&quot;&gt;&amp;nbsp; &amp;nbsp;&quot;ApplicationId&quot; : &quot;A1564898&quot;&amp;nbsp;&lt;/font&gt;&lt;/div&gt;&lt;div&gt;&lt;font face=&quot;Courier New&quot; color=&quot;#000000&quot;&gt;}&lt;/font&gt;&lt;/div&gt;" style="text;html=1;strokeColor=none;fillColor=none;align=left;verticalAlign=middle;whiteSpace=wrap;rounded=0;fontColor=#EA6B66;" vertex="1" parent="1">
          <mxGeometry x="-210" y="-20" width="400" height="90" as="geometry" />
        </mxCell>
        <mxCell id="avWEDO7k54FsJl_2Dnr1-18" value="" style="shape=flexArrow;endArrow=classic;html=1;rounded=0;fontFamily=Courier New;fontColor=#EA6B66;exitX=0.5;exitY=1;exitDx=0;exitDy=0;entryX=0.5;entryY=0;entryDx=0;entryDy=0;fillColor=#f8cecc;strokeColor=#b85450;" edge="1" parent="1" source="avWEDO7k54FsJl_2Dnr1-15" target="avWEDO7k54FsJl_2Dnr1-16">
          <mxGeometry width="50" height="50" relative="1" as="geometry">
            <mxPoint x="270" y="90" as="sourcePoint" />
            <mxPoint x="320" y="40" as="targetPoint" />
          </mxGeometry>
        </mxCell>
        <mxCell id="avWEDO7k54FsJl_2Dnr1-20" value="http request" style="text;html=1;strokeColor=none;fillColor=none;align=center;verticalAlign=middle;whiteSpace=wrap;rounded=0;fontFamily=Courier New;fontColor=#000000;" vertex="1" parent="1">
          <mxGeometry x="310" y="-160" width="60" height="30" as="geometry" />
        </mxCell>
        <mxCell id="avWEDO7k54FsJl_2Dnr1-25" style="edgeStyle=orthogonalEdgeStyle;rounded=0;orthogonalLoop=1;jettySize=auto;html=1;fontFamily=Courier New;fontColor=#000000;endArrow=classic;endFill=1;" edge="1" parent="1" source="avWEDO7k54FsJl_2Dnr1-21" target="avWEDO7k54FsJl_2Dnr1-24">
          <mxGeometry relative="1" as="geometry" />
        </mxCell>
        <mxCell id="avWEDO7k54FsJl_2Dnr1-26" value="&lt;font face=&quot;Helvetica&quot;&gt;Check &lt;br&gt;App ID&lt;/font&gt;" style="edgeLabel;html=1;align=center;verticalAlign=middle;resizable=0;points=[];fontFamily=Courier New;fontColor=#000000;" vertex="1" connectable="0" parent="avWEDO7k54FsJl_2Dnr1-25">
          <mxGeometry x="-0.2424" relative="1" as="geometry">
            <mxPoint as="offset" />
          </mxGeometry>
        </mxCell>
        <mxCell id="avWEDO7k54FsJl_2Dnr1-21" value="" style="aspect=fixed;html=1;points=[];align=center;image;fontSize=12;image=img/lib/azure2/compute/Function_Apps.svg;dashed=1;strokeColor=#F19C99;fontFamily=Courier New;fontColor=#000000;" vertex="1" parent="1">
          <mxGeometry x="335.75" y="210" width="68" height="60" as="geometry" />
        </mxCell>
        <mxCell id="avWEDO7k54FsJl_2Dnr1-23" value="Azure Gateway" style="text;html=1;strokeColor=none;fillColor=none;align=center;verticalAlign=middle;whiteSpace=wrap;rounded=0;labelBackgroundColor=default;" vertex="1" parent="1">
          <mxGeometry x="380" y="40" width="60" height="30" as="geometry" />
        </mxCell>
        <mxCell id="avWEDO7k54FsJl_2Dnr1-24" value="" style="aspect=fixed;html=1;points=[];align=center;image;fontSize=12;image=img/lib/azure2/databases/Azure_Cosmos_DB.svg;dashed=1;labelBackgroundColor=default;strokeColor=#F19C99;fontFamily=Courier New;fontColor=#000000;" vertex="1" parent="1">
          <mxGeometry x="540" y="206" width="64" height="64" as="geometry" />
        </mxCell>
      </root>
    </mxGraphModel>
  </diagram>
</mxfile>
